<svg width="22" height="28" fill="none" xmlns="http://www.w3.org/2000/svg"><path d="M0 14.402v-.804L8.681 0l2.023.979c.325.163.57.373.732.629.162.256.244.536.244.839 0 .396-.116.78-.349 1.153l-5.543 9.124c-.326.56-.651.99-.977 1.293.35.327.674.746.977 1.259l5.543 9.123c.116.187.198.385.244.595.07.21.105.408.105.594 0 .652-.325 1.13-.976 1.433L8.68 28 0 14.402Zm10.32 0v-.804L19.002 0l2.022.979c.325.163.57.373.732.629.163.256.244.536.244.839 0 .396-.116.78-.349 1.153l-5.543 9.124c-.326.56-.651.99-.976 1.293.348.327.674.746.976 1.259l5.543 9.123c.117.187.198.385.244.595.07.21.105.408.105.594 0 .652-.325 1.13-.976 1.433L19.002 28 10.32 14.402Z" fill="#fff"/></svg>